<?xml version="1.0" standalone="no"?>
<!DOCTYPE svg PUBLIC "-//W3C//DTD SVG 20010904//EN"
 "http://www.w3.org/TR/2001/REC-SVG-20010904/DTD/svg10.dtd">
<svg version="1.0" xmlns="http://www.w3.org/2000/svg"
 width="183.000000pt" height="16.000000pt" viewBox="0 0 183.000000 16.000000"
 preserveAspectRatio="xMidYMid meet">
<metadata>
Created by potrace 1.16, written by Peter Selinger 2001-2019
</metadata>
<g transform="translate(0.000000,16.000000) scale(0.100000,-0.100000)"
fill="#000000" stroke="none">
<path d="M59 145 c-23 -12 -59 -55 -59 -70 0 -15 32 -1 58 25 24 23 39 30 71
30 34 0 48 -7 98 -53 72 -67 91 -77 142 -77 36 0 49 7 112 65 93 85 114 87
196 12 71 -66 91 -77 141 -77 35 0 49 8 112 65 95 85 116 86 197 12 72 -67 91
-77 142 -77 36 0 49 7 112 65 93 85 114 87 196 12 71 -66 91 -77 141 -77 47 0
106 36 110 68 4 29 -4 28 -45 -8 -45 -40 -86 -40 -141 1 -23 17 -42 35 -42 40
0 20 -76 59 -115 59 -46 0 -68 -13 -142 -82 -63 -58 -91 -61 -151 -17 -23 17
-42 35 -42 40 0 20 -76 59 -115 59 -46 0 -68 -13 -142 -82 -63 -58 -91 -61
-151 -17 -23 17 -42 35 -42 40 0 20 -76 59 -115 59 -46 0 -68 -13 -142 -82
-63 -58 -91 -61 -151 -17 -23 17 -42 35 -42 40 0 4 -17 20 -37 34 -43 29 -111
33 -154 10z"/>
</g>
</svg>
